<svg width="7" height="8" viewBox="0 0 7 8" fill="none" xmlns="http://www.w3.org/2000/svg">
<path d="M3.65972 6.95519C3.47592 7.24029 3.1897 7.41551 2.88023 7.43293C2.57076 7.45052 2.27103 7.30797 2.06367 7.04478L0.205435 4.68805C-0.0898973 4.31372 -0.0636631 3.7367 0.263873 3.39918C0.591723 3.06166 1.0963 3.09182 1.39163 3.46632L2.70633 5.13383C2.72581 5.1586 2.75409 5.17189 2.78315 5.17027C2.81237 5.16866 2.83907 5.15196 2.85651 5.12539L5.5588 0.9367C5.82036 0.530955 6.32022 0.4446 6.67541 0.743702C7.03028 1.0428 7.10568 1.61408 6.84397 2.01964L3.65972 6.95519Z" fill="white"/>
</svg>
