<svg width="19" height="19" viewBox="0 0 19 19" fill="none" xmlns="http://www.w3.org/2000/svg">
<path d="M12.8522 18.9998H2.95643C1.75545 18.9998 0.779297 18.0237 0.779297 16.8227V6.13518C0.779297 4.9342 1.75545 3.95819 2.95643 3.95819H3.35217C3.67992 3.95819 3.94592 4.22419 3.94592 4.55194C3.94592 4.87969 3.67992 5.14569 3.35217 5.14569H2.95643C2.41095 5.14569 1.9668 5.5897 1.9668 6.13518V16.8227C1.9668 17.3682 2.41095 17.8123 2.95643 17.8123H12.8522C13.3976 17.8123 13.8418 17.3682 13.8418 16.8227V16.4269C13.8418 16.0992 14.1078 15.8332 14.4355 15.8332C14.7633 15.8332 15.0293 16.0992 15.0293 16.4269V16.8227C15.0293 18.0237 14.0531 18.9998 12.8522 18.9998Z" fill="#848199"/>
<path d="M16.0189 14.25H7.70643C6.50545 14.25 5.5293 13.2738 5.5293 12.0729V2.17713C5.5293 0.976151 6.50545 0 7.70643 0H16.0189C17.2199 0 18.1959 0.976151 18.1959 2.17713V12.0729C18.1959 13.2738 17.2199 14.25 16.0189 14.25ZM7.70643 1.1875C7.16095 1.1875 6.7168 1.63165 6.7168 2.17713V12.0729C6.7168 12.6183 7.16095 13.0625 7.70643 13.0625H16.0189C16.5644 13.0625 17.0084 12.6183 17.0084 12.0729V2.17713C17.0084 1.63165 16.5644 1.1875 16.0189 1.1875H7.70643Z" fill="#848199"/>
</svg>
