<svg width="1440" height="378" viewBox="0 0 1440 378" fill="none" xmlns="http://www.w3.org/2000/svg">
<mask id="mask0" style="mask-type:alpha" maskUnits="userSpaceOnUse" x="-28" y="0" width="1496" height="378">
<rect x="-28" width="1496" height="378" rx="16" fill="#C4C4C4"/>
</mask>
<g mask="url(#mask0)">
<rect x="-28" width="1496" height="378" rx="16" fill="#FF7900"/>
<path opacity="0.15" d="M956.242 271.312C797.456 160.225 578.629 290.037 405.206 202.125C314.973 156.384 296.674 115.109 231.924 46.875C190.393 3.10954 186.434 -4.50954 147.016 -35.8125C107.598 -67.1155 36.1154 -103.312 36.1154 -103.312V-218.062H1902.36V546.375H1457.03C1457.03 546.375 1219.17 549.984 1105.26 455.25C1035.99 397.632 1037.53 328.179 956.242 271.312Z" fill="white"/>
<path opacity="0.15" d="M1020.35 234.562C861.569 123.475 642.742 281.975 469.319 194.062C379.086 148.322 331.849 -13.7813 305.568 -61.6875C291.167 -87.9375 269.178 -111.563 233.463 -129.938C197.748 -148.313 100.228 -140.062 100.228 -140.062V-254.812H1966.47V461.625H1548.86C1548.86 461.625 1256.02 470.812 1160.71 405C1077.54 347.564 1101.64 291.429 1020.35 234.562Z" fill="white"/>
</g>
</svg>
