<svg width="43" height="43" viewBox="0 0 43 43" fill="none" xmlns="http://www.w3.org/2000/svg">
<path opacity="0.4" d="M30.7231 0.249512H12.2994C5.09561 0.249512 0.25061 5.30701 0.25061 12.8295V30.1908C0.25061 37.692 5.09561 42.7495 12.2994 42.7495H30.7231C37.9269 42.7495 42.7506 37.692 42.7506 30.1908V12.8295C42.7506 5.30701 37.9269 0.249512 30.7231 0.249512Z" fill="#4CAF50"/>
<path d="M18.9785 28.4027C18.5025 28.4027 18.0265 28.2221 17.6631 27.8587L12.6205 22.8161C11.8937 22.0893 11.8937 20.9121 12.6205 20.1875C13.3472 19.4607 14.5223 19.4586 15.2491 20.1853L18.9785 23.9147L27.7505 15.1427C28.4772 14.416 29.6523 14.416 30.3791 15.1427C31.1058 15.8695 31.1058 17.0467 30.3791 17.7735L20.2938 27.8587C19.9305 28.2221 19.4545 28.4027 18.9785 28.4027Z" fill="#4CAF50"/>
</svg>
