<svg width="32" height="32" viewBox="0 0 32 32" fill="none" xmlns="http://www.w3.org/2000/svg">
<path d="M15.8752 19.5C16.8034 19.5 17.6937 19.1313 18.3501 18.4749C19.0064 17.8185 19.3752 16.9283 19.3752 16C19.3752 15.8975 19.3705 15.7959 19.3617 15.6956L15.5708 19.4866C15.6711 19.4953 15.7724 19.5 15.8752 19.5ZM27.4602 5.17376L26.1252 3.84001C26.0783 3.79316 26.0147 3.76685 25.9485 3.76685C25.8822 3.76685 25.8186 3.79316 25.7717 3.84001L22.3555 7.2572C20.4709 6.29407 18.3525 5.81251 16.0002 5.81251C9.99393 5.81251 5.51268 8.94064 2.55643 15.1969C2.4376 15.4485 2.37598 15.7233 2.37598 16.0016C2.37598 16.2798 2.4376 16.5546 2.55643 16.8063C3.73768 19.2944 5.16008 21.2887 6.82362 22.7891L3.51768 26.0938C3.47083 26.1406 3.44451 26.2042 3.44451 26.2705C3.44451 26.3368 3.47083 26.4003 3.51768 26.4472L4.85174 27.7813C4.89862 27.8281 4.96219 27.8544 5.02846 27.8544C5.09474 27.8544 5.1583 27.8281 5.20518 27.7813L27.4602 5.52751C27.4834 5.50429 27.5019 5.47672 27.5144 5.44637C27.527 5.41602 27.5335 5.38349 27.5335 5.35064C27.5335 5.31778 27.527 5.28525 27.5144 5.2549C27.5019 5.22455 27.4834 5.19698 27.4602 5.17376ZM10.3752 16C10.3751 15.05 10.6211 14.1162 11.0891 13.2896C11.5572 12.4629 12.2314 11.7716 13.0461 11.2829C13.8608 10.7943 14.7881 10.525 15.7378 10.5012C16.6875 10.4775 17.6271 10.7002 18.4652 11.1475L16.9458 12.6669C16.3331 12.4707 15.6781 12.4471 15.0528 12.5986C14.4275 12.7501 13.856 13.071 13.4011 13.5259C12.9461 13.9809 12.6253 14.5523 12.4738 15.1776C12.3222 15.8029 12.3459 16.4579 12.5421 17.0706L11.0227 18.59C10.5963 17.7934 10.3739 16.9036 10.3752 16V16Z" fill="#808080"/>
<path d="M29.4438 15.1936C28.3438 12.8769 27.0345 10.9878 25.516 9.52637L21.0116 14.0311C21.3913 15.0236 21.4755 16.1049 21.2539 17.1442C21.0324 18.1835 20.5146 19.1365 19.7632 19.8879C19.0118 20.6394 18.0588 21.1571 17.0195 21.3787C15.9801 21.6002 14.8989 21.5161 13.9063 21.1364L10.0857 24.957C11.8582 25.7772 13.8297 26.1873 16.0001 26.1873C22.0063 26.1873 26.4876 23.0592 29.4438 16.8029C29.5627 16.5513 29.6243 16.2765 29.6243 15.9982C29.6243 15.72 29.5627 15.4452 29.4438 15.1936V15.1936Z" fill="#808080"/>
</svg>
