<svg width="39" height="39" viewBox="0 0 39 39" fill="none" xmlns="http://www.w3.org/2000/svg">
<path d="M19.5 0C12.3319 0 6.5 5.83195 6.5 13C6.5 15.1519 7.038 17.2855 8.06076 19.1779L18.7891 38.5811C18.9319 38.8397 19.2041 39 19.5 39C19.796 39 20.0681 38.8397 20.2109 38.5811L30.9432 19.1715C31.962 17.2855 32.5 15.1518 32.5 12.9999C32.5 5.83195 26.6681 0 19.5 0ZM19.5 19.5C15.916 19.5 13.0001 16.5841 13.0001 13C13.0001 9.41599 15.916 6.50005 19.5 6.50005C23.0841 6.50005 26 9.41599 26 13C26 16.5841 23.0841 19.5 19.5 19.5Z" fill="#FF7900"/>
</svg>
