<svg width="56" height="56" viewBox="0 0 56 56" fill="none" xmlns="http://www.w3.org/2000/svg">
<path fill-rule="evenodd" clip-rule="evenodd" d="M27.8654 0C12.4757 0 0 12.4757 0 27.8654C-2.69743e-06 43.255 12.4757 55.7307 27.8654 55.7307C43.255 55.7307 55.7307 43.255 55.7307 27.8654C55.7307 12.4757 43.255 2.75e-06 27.8654 0ZM31.1901 15.9233C31.5512 15.9233 31.9267 16.0651 32.201 16.3346C32.7498 16.8735 32.7498 17.7669 32.201 18.3199L22.4821 27.8639L32.201 37.4078C32.7642 37.9608 32.7642 38.8401 32.201 39.3931C31.6378 39.9462 30.7425 39.9462 30.1793 39.3931L19.4494 28.8565C19.175 28.5871 19.0306 28.2326 19.0306 27.8639C19.0306 27.4951 19.175 27.1406 19.4494 26.8712L30.1793 16.3346C30.4536 16.0651 30.8291 15.9233 31.1901 15.9233Z" fill="white" fill-opacity="0.7"/>
</svg>
