<svg width="96" height="96" viewBox="0 0 96 96" fill="none" xmlns="http://www.w3.org/2000/svg">
<rect width="96" height="96" rx="48" fill="white"/>
<path d="M63.8 42.4C63.8 33.8597 56.8695 27 48.4 27C39.9305 27 33 33.9286 33 42.4C33 48.2809 36.5694 53.4601 41.4007 56.0506L39.9993 68.9996L48.4 63.3998L56.8007 68.9996L55.4012 56.0487C60.2994 53.4601 63.8 48.2789 63.8 42.4ZM48.4 56.3986C46.5612 56.3993 44.7403 56.0377 43.0413 55.3344C41.3424 54.6311 39.7987 53.5998 38.4985 52.2996C37.1982 50.9994 36.167 49.4557 35.4637 47.7567C34.7603 46.0578 34.3987 44.2369 34.3995 42.3981C34.3995 34.6283 40.699 28.3976 48.4 28.3976C56.1009 28.3976 62.4005 34.6971 62.4005 42.3981C62.4071 44.2385 62.0494 46.062 61.3482 47.7636C60.6469 49.4652 59.6159 51.0112 58.3145 52.3126C57.0131 53.614 55.4671 54.645 53.7655 55.3462C52.0639 56.0475 50.2404 56.4052 48.4 56.3986ZM54.6996 36.6587L56.7988 38.7579L47.3485 48.2082L42.1004 42.9583L44.1996 40.859L47.3504 44.0098L54.6996 36.6587Z" fill="#FF7900"/>
</svg>
