<svg width="370" height="386" viewBox="0 0 370 386" fill="none" xmlns="http://www.w3.org/2000/svg">
<path fill-rule="evenodd" clip-rule="evenodd" d="M-74.5215 147.08L-111.903 240.441C-114.762 247.58 -111.291 255.685 -104.152 258.543L-10.7916 295.925C-3.65227 298.783 4.45261 295.313 7.31119 288.174L44.6927 194.813C47.5513 187.674 44.0811 179.569 36.9418 176.711L-56.4187 139.329C-63.558 136.47 -71.6629 139.941 -74.5215 147.08ZM-113.339 239.865C-116.516 247.798 -112.66 256.803 -104.727 259.98L-11.3667 297.361C-3.43411 300.537 5.5713 296.682 8.7475 288.749L46.129 195.388C49.3052 187.456 45.4494 178.45 37.5169 175.274L-55.8436 137.893C-63.7762 134.717 -72.7816 138.572 -75.9578 146.505L-113.339 239.865ZM-127.429 279.221L-164.81 372.582C-167.669 379.721 -164.199 387.826 -157.059 390.684L-63.6988 428.066C-56.5595 430.925 -48.4547 427.454 -45.5961 420.315L-8.21458 326.955C-5.356 319.815 -8.82621 311.71 -15.9655 308.852L-109.326 271.47C-116.465 268.612 -124.57 272.082 -127.429 279.221ZM-166.247 372.007C-169.423 379.939 -165.567 388.945 -157.634 392.121L-64.274 429.502C-56.3414 432.678 -47.336 428.823 -44.1598 420.89L-6.77827 327.53C-3.60208 319.597 -7.45786 310.592 -15.3904 307.415L-108.751 270.034C-116.683 266.858 -125.689 270.714 -128.865 278.646L-166.247 372.007ZM4.71086 332.132L-32.6707 425.492C-35.5292 432.632 -32.059 440.737 -24.9197 443.595L68.4408 480.977C75.5801 483.835 83.685 480.365 86.5435 473.226L123.925 379.865C126.784 372.726 123.313 364.621 116.174 361.762L22.8136 324.381C15.6743 321.522 7.56943 324.993 4.71086 332.132ZM-34.107 424.917C-37.2832 432.85 -33.4274 441.855 -25.4948 445.031L67.8657 482.413C75.7982 485.589 84.8037 481.733 87.9798 473.801L125.361 380.44C128.538 372.508 124.682 363.502 116.749 360.326L23.3887 322.945C15.4562 319.768 6.45075 323.624 3.27455 331.557L-34.107 424.917ZM99.4705 478.399L136.852 385.038C139.711 377.899 147.815 374.429 154.955 377.287L248.315 414.669C255.455 417.527 258.925 425.632 256.066 432.772L218.685 526.132C215.826 533.271 207.721 536.742 200.582 533.883L107.221 496.501C100.082 493.643 96.6119 485.538 99.4705 478.399ZM106.646 497.938C98.7138 494.762 94.858 485.756 98.0342 477.824L135.416 384.463C138.592 376.531 147.597 372.675 155.53 375.851L248.89 413.233C256.823 416.409 260.679 425.414 257.502 433.347L220.121 526.707C216.945 534.64 207.939 538.496 200.007 535.319L106.646 497.938ZM20.2393 293.35L57.6208 199.99C60.4794 192.85 68.5843 189.38 75.7236 192.239L169.084 229.62C176.223 232.479 179.694 240.584 176.835 247.723L139.454 341.084C136.595 348.223 128.49 351.693 121.351 348.834L27.9903 311.453C20.851 308.594 17.3807 300.489 20.2393 293.35ZM27.4152 312.889C19.4826 309.713 15.6268 300.708 18.803 292.775L56.1845 199.415C59.3607 191.482 68.3661 187.626 76.2987 190.802L169.659 228.184C177.592 231.36 181.448 240.366 178.271 248.298L140.89 341.659C137.714 349.591 128.708 353.447 120.776 350.271L27.4152 312.889ZM189.762 252.9L152.381 346.26C149.522 353.4 152.992 361.504 160.131 364.363L253.492 401.745C260.631 404.603 268.736 401.133 271.595 393.994L308.976 300.633C311.835 293.494 308.365 285.389 301.225 282.53L207.865 245.149C200.726 242.29 192.621 245.761 189.762 252.9ZM150.944 345.685C147.768 353.618 151.624 362.623 159.556 365.799L252.917 403.181C260.849 406.357 269.855 402.501 273.031 394.569L310.413 301.208C313.589 293.276 309.733 284.27 301.8 281.094L208.44 243.713C200.507 240.536 191.502 244.392 188.326 252.325L150.944 345.685ZM-58.9916 108.301L-21.6101 14.9409C-18.7515 7.80162 -10.6466 4.33139 -3.50731 7.18997L89.8532 44.5715C96.9925 47.4301 100.463 55.5349 97.6041 62.6743L60.2226 156.035C57.364 163.174 49.2592 166.644 42.1198 163.786L-51.2407 126.404C-58.3799 123.546 -61.8502 115.441 -58.9916 108.301ZM-51.8158 127.84C-59.7483 124.664 -63.6041 115.659 -60.4279 107.726L-23.0464 14.3658C-19.8702 6.43326 -10.8648 2.57748 -2.93222 5.75367L90.4283 43.1352C98.3608 46.3114 102.217 55.3168 99.0404 63.2493L61.6589 156.61C58.4827 164.542 49.4773 168.398 41.5447 165.222L-51.8158 127.84ZM110.53 67.8478L73.1482 161.208C70.2896 168.348 73.7598 176.452 80.8991 179.311L174.26 216.693C181.399 219.551 189.504 216.081 192.362 208.942L229.744 115.581C232.602 108.442 229.132 100.337 221.993 97.4784L128.632 60.0969C121.493 57.2383 113.388 60.7085 110.53 67.8478ZM71.7118 160.633C68.5357 168.566 72.3914 177.571 80.324 180.747L173.685 218.129C181.617 221.305 190.622 217.449 193.799 209.517L231.18 116.156C234.356 108.224 230.501 99.2183 222.568 96.0421L129.208 58.6606C121.275 55.4844 112.27 59.3402 109.093 67.2727L71.7118 160.633ZM205.289 214.118L242.671 120.758C245.53 113.619 253.634 110.148 260.774 113.007L354.134 150.389C361.273 153.247 364.744 161.352 361.885 168.491L324.504 261.852C321.645 268.991 313.54 272.461 306.401 269.603L213.04 232.221C205.901 229.363 202.431 221.258 205.289 214.118ZM212.465 233.658C204.533 230.481 200.677 221.476 203.853 213.543L241.235 120.183C244.411 112.25 253.416 108.395 261.349 111.571L354.709 148.952C362.642 152.128 366.498 161.134 363.321 169.066L325.94 262.427C322.764 270.359 313.758 274.215 305.826 271.039L212.465 233.658Z" fill="#FFEFE0"/>
</svg>
