<svg width="37" height="37" viewBox="0 0 37 37" fill="none" xmlns="http://www.w3.org/2000/svg">
<path opacity="0.4" d="M9.93911 33.917C6.16048 33.917 3.08331 30.787 3.08331 26.9417L3.08331 19.2933C3.08331 15.4558 6.15123 12.3337 9.92369 12.3337H27.0609C30.841 12.3337 33.9166 15.4636 33.9166 19.3105V26.9558C33.9166 30.7949 30.8487 33.917 27.0763 33.917H25.6271H9.93911Z" fill="#979797"/>
<path d="M17.6594 3.42412L13.1747 7.81138C12.7122 8.26482 12.7122 8.99453 13.1778 9.44647C13.6434 9.8969 14.3942 9.8954 14.8567 9.44346L17.3126 7.03963V9.34437V22.2794C17.3126 22.9175 17.8444 23.4355 18.4997 23.4355C19.1564 23.4355 19.6867 22.9175 19.6867 22.2794V7.03963L22.1426 9.44346C22.6051 9.8954 23.3559 9.8969 23.8215 9.44647C24.0543 9.21974 24.1714 8.92396 24.1714 8.62667C24.1714 8.33238 24.0543 8.0366 23.8246 7.81138L19.3414 3.42412C19.1179 3.20641 18.8157 3.08329 18.4997 3.08329C18.1852 3.08329 17.883 3.20641 17.6594 3.42412Z" fill="#979797"/>
</svg>
