<svg width="32" height="32" viewBox="0 0 32 32" fill="none" xmlns="http://www.w3.org/2000/svg">
<path opacity="0.1" fill-rule="evenodd" clip-rule="evenodd" d="M0 16C0 7.16344 7.16344 0 16 0C24.8366 0 32 7.16344 32 16C32 24.8366 24.8366 32 16 32C7.16344 32 0 24.8366 0 16Z" fill="#FF7900"/>
<path d="M19.5793 16.7685C19.5461 16.7526 18.3068 16.1423 18.0866 16.0631C17.9967 16.0308 17.9003 15.9993 17.7979 15.9993C17.6305 15.9993 17.49 16.0827 17.3805 16.2465C17.2567 16.4305 16.8819 16.8686 16.7661 16.9995C16.751 17.0167 16.7303 17.0374 16.718 17.0374C16.7069 17.0374 16.5151 16.9584 16.457 16.9332C15.1275 16.3557 14.1184 14.9669 13.98 14.7327C13.9603 14.699 13.9594 14.6838 13.9593 14.6838C13.9641 14.6659 14.0088 14.6211 14.0319 14.598C14.0994 14.5312 14.1725 14.4432 14.2433 14.358C14.2768 14.3176 14.3104 14.2772 14.3433 14.2392C14.446 14.1197 14.4917 14.027 14.5447 13.9196L14.5724 13.8638C14.7018 13.6067 14.5913 13.3898 14.5556 13.3198C14.5263 13.2612 14.003 11.9982 13.9473 11.8655C13.8135 11.5453 13.6368 11.3962 13.3911 11.3962C13.3683 11.3962 13.3911 11.3962 13.2955 11.4003C13.1791 11.4052 12.5452 11.4886 12.2649 11.6653C11.9677 11.8527 11.4648 12.45 11.4648 13.5005C11.4648 14.4459 12.0648 15.3386 12.3224 15.6781C12.3288 15.6866 12.3406 15.704 12.3576 15.729C13.3441 17.1697 14.5739 18.2374 15.8206 18.7354C17.0208 19.2148 17.5892 19.2702 17.9123 19.2702C17.9123 19.2702 17.9123 19.2702 17.9123 19.2702C18.0481 19.2702 18.1568 19.2596 18.2527 19.2501L18.3135 19.2443C18.7281 19.2076 19.6393 18.7354 19.8465 18.1595C20.0098 17.7058 20.0528 17.2102 19.9442 17.0303C19.8698 16.908 19.7416 16.8465 19.5793 16.7685Z" fill="#FF7900"/>
<path d="M15.6509 7C11.0468 7 7.30102 10.7176 7.30102 15.2871C7.30102 16.7651 7.69655 18.2118 8.44582 19.478L7.01169 23.7084C6.98497 23.7872 7.00484 23.8744 7.06319 23.9338C7.1053 23.9768 7.16243 24 7.22077 24C7.24312 24 7.26564 23.9966 7.28761 23.9896L11.6988 22.5879C12.9059 23.2329 14.2702 23.5733 15.651 23.5733C20.2546 23.5734 24 19.8561 24 15.2871C24 10.7176 20.2546 7 15.6509 7ZM15.6509 21.8471C14.3517 21.8471 13.0933 21.4719 12.0116 20.7621C11.9752 20.7382 11.933 20.726 11.8905 20.726C11.868 20.726 11.8455 20.7294 11.8236 20.7363L9.61385 21.4388L10.3272 19.3342C10.3503 19.2661 10.3387 19.191 10.2962 19.1329C9.4725 18.0074 9.03706 16.6776 9.03706 15.2871C9.03706 11.6695 12.004 8.72627 15.6508 8.72627C19.2972 8.72627 22.2638 11.6695 22.2638 15.2871C22.2639 18.9043 19.2973 21.8471 15.6509 21.8471Z" fill="#FF7900"/>
</svg>
