<?xml version="1.0" encoding="utf-8"?>
<!-- Generator: Adobe Illustrator 23.0.3, SVG Export Plug-In . SVG Version: 6.00 Build 0)  -->
<svg version="1.1" id="Layer_1" xmlns="http://www.w3.org/2000/svg" xmlns:xlink="http://www.w3.org/1999/xlink" x="0px" y="0px"
	 viewBox="0 0 162 162" style="enable-background:new 0 0 162 162;" xml:space="preserve">
<style type="text/css">
	.st0{fill:none;stroke:#000000;stroke-miterlimit:10;stroke-dasharray:3.01,3.01;}
	.st1{fill:#A67C52;}
</style>
<title>Asset 2</title>
<circle class="st0" cx="80.8" cy="81.1" r="80.5"/>
<g>
	<path class="st1" d="M119.2,125.6H42.5c-6.2,0-11.3-5.1-11.3-11.4v-66c0-6.3,5.1-11.4,11.3-11.4h76.7c6.2,0,11.3,5.1,11.3,11.4v66
		C130.5,120.5,125.4,125.6,119.2,125.6z M42.5,40.1c-4.4,0-7.9,3.6-7.9,8v66c0,4.4,3.6,8,7.9,8h76.7c4.4,0,7.9-3.6,7.9-8v-66
		c0-4.4-3.6-8-7.9-8H42.5z"/>
	<path class="st1" d="M115.3,99.6H89c-0.9,0-1.7-0.8-1.7-1.7c0-0.9,0.8-1.7,1.7-1.7h26.4c0.9,0,1.7,0.8,1.7,1.7
		C117,98.8,116.3,99.6,115.3,99.6z"/>
	<path class="st1" d="M115.3,111.9H89c-0.9,0-1.7-0.8-1.7-1.7c0-0.9,0.8-1.7,1.7-1.7h26.4c0.9,0,1.7,0.8,1.7,1.7
		C117,111.1,116.3,111.9,115.3,111.9z"/>
	<path class="st1" d="M115.3,74.9H89c-0.9,0-1.7-0.8-1.7-1.7c0-0.9,0.8-1.7,1.7-1.7h26.4c0.9,0,1.7,0.8,1.7,1.7
		C117,74.2,116.3,74.9,115.3,74.9z"/>
	<path class="st1" d="M115.3,87.3H89c-0.9,0-1.7-0.8-1.7-1.7c0-0.9,0.8-1.7,1.7-1.7h26.4c0.9,0,1.7,0.8,1.7,1.7
		C117,86.5,116.3,87.3,115.3,87.3z"/>
	<path class="st1" d="M128.8,59.5H32.9c-0.9,0-1.7-0.8-1.7-1.7c0-0.9,0.8-1.7,1.7-1.7h95.9c0.9,0,1.7,0.8,1.7,1.7
		C130.5,58.7,129.7,59.5,128.8,59.5z"/>
	<path class="st1" d="M55.4,53.4c-2.9,0-5.2-2.4-5.2-5.3c0-2.9,2.3-5.3,5.2-5.3c2.9,0,5.2,2.4,5.2,5.3
		C60.6,51.1,58.3,53.4,55.4,53.4z M55.4,46.2c-1,0-1.9,0.8-1.9,1.9s0.8,1.9,1.9,1.9c1,0,1.9-0.8,1.9-1.9S56.4,46.2,55.4,46.2z"/>
	<path class="st1" d="M43.3,53.4c-2.9,0-5.2-2.4-5.2-5.3c0-2.9,2.3-5.3,5.2-5.3c2.9,0,5.2,2.4,5.2,5.3
		C48.5,51.1,46.2,53.4,43.3,53.4z M43.3,46.2c-1,0-1.9,0.8-1.9,1.9s0.8,1.9,1.9,1.9c1,0,1.9-0.8,1.9-1.9S44.3,46.2,43.3,46.2z"/>
	<path class="st1" d="M67.5,53.4c-2.9,0-5.2-2.4-5.2-5.3c0-2.9,2.3-5.3,5.2-5.3s5.2,2.4,5.2,5.3C72.7,51.1,70.4,53.4,67.5,53.4z
		 M67.5,46.2c-1,0-1.9,0.8-1.9,1.9s0.8,1.9,1.9,1.9c1,0,1.9-0.8,1.9-1.9S68.5,46.2,67.5,46.2z"/>
	<path class="st1" d="M76.3,111.9H45.8c-0.9,0-1.7-0.8-1.7-1.7V73.2c0-0.9,0.8-1.7,1.7-1.7h30.5c0.9,0,1.7,0.8,1.7,1.7v36.9
		C78,111.1,77.2,111.9,76.3,111.9z M47.5,108.5h27.1V74.9H47.5V108.5z"/>
</g>
</svg>
