<?xml version="1.0" encoding="utf-8"?>
<!-- Generator: Adobe Illustrator 23.0.3, SVG Export Plug-In . SVG Version: 6.00 Build 0)  -->
<svg version="1.1" id="Layer_1" xmlns="http://www.w3.org/2000/svg" xmlns:xlink="http://www.w3.org/1999/xlink" x="0px" y="0px"
	 viewBox="0 0 162 162" style="enable-background:new 0 0 162 162;" xml:space="preserve">
<style type="text/css">
	.st0{fill:none;stroke:#000000;stroke-miterlimit:10;stroke-dasharray:3.01,3.01;}
	.st1{fill:#A67C52;}
</style>
<title>Asset 3</title>
<circle class="st0" cx="80.5" cy="82" r="80.5"/>
<g>
	<g>
		<path class="st1" d="M103.7,128.1c-0.7,0-1.4-0.1-2.2-0.3L36,110.5c-4.5-1.2-7.2-5.8-6-10.3l8.3-30.5c0.3-1.1,1.5-1.8,2.6-1.5
			c1.1,0.3,1.8,1.5,1.5,2.6l-8.3,30.5c-0.6,2.2,0.8,4.5,3,5.2l65.5,17.4c2.3,0.6,4.6-0.7,5.2-3l3.3-12.1c0.3-1.1,1.5-1.8,2.6-1.5
			c1.1,0.3,1.8,1.5,1.5,2.6l-3.3,12.1C110.8,125.6,107.4,128.1,103.7,128.1L103.7,128.1z"/>
	</g>
	<g>
		<path class="st1" d="M122.9,103H55.1c-4.7,0-8.5-3.8-8.5-8.4V44.3c0-4.6,3.8-8.4,8.5-8.4h67.8c4.7,0,8.5,3.8,8.5,8.4v50.3
			C131.4,99.2,127.6,103,122.9,103z M55.1,40.1c-2.3,0-4.2,1.9-4.2,4.2v50.3c0,2.3,1.9,4.2,4.2,4.2h67.8c2.3,0,4.2-1.9,4.2-4.2V44.3
			c0-2.3-1.9-4.2-4.2-4.2H55.1z"/>
	</g>
	<g>
		<path class="st1" d="M67.8,65.2c-4.7,0-8.5-3.8-8.5-8.4s3.8-8.4,8.5-8.4c4.7,0,8.5,3.8,8.5,8.4S72.5,65.2,67.8,65.2z M67.8,52.7
			c-2.3,0-4.2,1.9-4.2,4.2c0,2.3,1.9,4.2,4.2,4.2s4.2-1.9,4.2-4.2C72.1,54.6,70.2,52.7,67.8,52.7z"/>
	</g>
	<g>
		<path class="st1" d="M49.1,98.5c-0.5,0-1.1-0.2-1.5-0.6c-0.8-0.8-0.8-2.1,0-3l20-19.8c2.4-2.4,6.6-2.4,9,0l6,5.9L99,61.4
			c1.2-1.4,3-2.2,4.8-2.3h0c1.9,0,3.6,0.8,4.8,2.2l22.2,25.6c0.8,0.9,0.7,2.2-0.2,3c-0.9,0.8-2.2,0.7-3-0.2l-22.2-25.6
			c-0.4-0.5-1-0.7-1.6-0.7c-0.4,0-1.2,0.3-1.6,0.8l-18,21.3c-0.4,0.5-0.9,0.7-1.5,0.8c-0.6,0-1.2-0.2-1.6-0.6l-7.6-7.5
			c-0.8-0.8-2.2-0.8-3,0l-20,19.8C50.1,98.3,49.6,98.5,49.1,98.5L49.1,98.5z"/>
	</g>
</g>
</svg>
