<?xml version="1.0" encoding="utf-8"?>
<!-- Generator: Adobe Illustrator 23.0.3, SVG Export Plug-In . SVG Version: 6.00 Build 0)  -->
<svg version="1.1" id="Layer_1" xmlns="http://www.w3.org/2000/svg" xmlns:xlink="http://www.w3.org/1999/xlink" x="0px" y="0px"
	 viewBox="0 0 162 162" style="enable-background:new 0 0 162 162;" xml:space="preserve">
<style type="text/css">
	.st0{fill:none;stroke:#000000;stroke-miterlimit:10;stroke-dasharray:3.01,3.01;}
	.st1{fill:#A67C52;}
</style>
<title>Asset 4</title>
<circle class="st0" cx="81.4" cy="80.6" r="80.5"/>
<g id="Outline">
	<rect x="79.8" y="119.3" class="st1" width="3.3" height="3.2"/>
	<path class="st1" d="M40.6,67.7h6l11,7.8c0.7,0.5,1.8,0.3,2.3-0.4c0.3-0.4,0.4-0.8,0.3-1.3l-1.2-6.1H70c4.5,0,8.1-3.6,8.2-8.1V40.4
		c0-4.4-3.7-8-8.2-8.1H40.6c-4.5,0-8.1,3.6-8.2,8.1v19.3C32.5,64.1,36.1,67.7,40.6,67.7z M35.7,40.4c0-2.7,2.2-4.8,4.9-4.8H70
		c2.7,0,4.9,2.2,4.9,4.8v19.3c0,2.7-2.2,4.8-4.9,4.8h-13c-0.9,0-1.6,0.7-1.6,1.6c0,0.1,0,0.2,0,0.3l0.8,4.1l-8.1-5.7
		c-0.3-0.2-0.6-0.3-0.9-0.3h-6.5c-2.7,0-4.9-2.2-4.9-4.8V40.4z"/>
	<path class="st1" d="M43.9,48.4v9.7c0,0.9,0.7,1.6,1.6,1.6h13c0.9,0,1.6-0.7,1.6-1.6v-0.6l4.2,2.1c0.8,0.4,1.8,0.1,2.2-0.7
		c0.1-0.2,0.2-0.5,0.2-0.7v-9.7c0-0.9-0.7-1.6-1.6-1.6c-0.3,0-0.5,0.1-0.7,0.2L60.2,49v-0.6c0,0,0,0,0-0.1c2.2-2.2,2.2-5.8,0-8
		c-2.2-2.2-5.8-2.2-8.1,0c0,0,0,0-0.1,0.1c-2.2-2.2-5.8-2.3-8.1-0.1s-2.3,5.7-0.1,8C43.9,48.3,43.9,48.3,43.9,48.4
		C43.9,48.4,43.9,48.4,43.9,48.4z M56.9,56.5h-9.8V50h9.8V56.5z M63.5,51v4.5l-3.3-1.6v-1.2L63.5,51z M56.1,42
		c1.4,0,2.4,1.1,2.4,2.4c0,1.3-1.1,2.4-2.4,2.4s-2.4-1.1-2.4-2.4C53.7,43,54.8,42,56.1,42z M48,42c1.4,0,2.4,1.1,2.4,2.4
		c0,1.3-1.1,2.4-2.4,2.4s-2.4-1.1-2.4-2.4C45.5,43,46.6,42,48,42z"/>
	<path class="st1" d="M122.2,45.2h-14.8c-0.8-3.7-4.1-6.4-8-6.4H81.4V42h17.9c2.1,0,3.9,1.3,4.6,3.2H89.6c-4.5,0-8.1,3.6-8.2,8.1
		v19.3c0,4.4,3.7,8,8.2,8.1h12.7l-1.2,6.1c-0.2,0.9,0.4,1.7,1.3,1.9c0.4,0.1,0.9,0,1.3-0.3l0.7-0.5v6.6L99.7,90
		c-2.9-2.9-7.6-2.9-10.5,0c-2.9,2.9-2.9,7.5,0,10.3l0,0l9.7,9.5c-0.6,0.9-1.1,2-1.5,3h-42v8.1c0,4.4,3.7,8,8.2,8.1h57.1
		c0.9,0,1.6-0.7,1.6-1.6V96.8c0-4.3-1.5-8.4-4.4-11.6l-3.5-4.4l0.2-0.1h7.6c4.5,0,8.1-3.6,8.2-8.1V53.2
		C130.3,48.8,126.7,45.2,122.2,45.2z M89.6,48.4h32.6c2.7,0,4.9,2.2,4.9,4.8v16.3l-7.2-4.8c-0.5-0.4-1.3-0.4-1.8,0l-8.8,5.8l-12.1-9
		c-0.6-0.4-1.4-0.4-2,0l-10.4,7.7V53.2C84.7,50.6,86.9,48.4,89.6,48.4z M58.6,120.9v-4.8h37.9c-0.5,3.3,0,6.7,1.6,9.7H63.5
		C60.8,125.7,58.6,123.6,58.6,120.9z M115.3,87.3c2.3,2.6,3.6,6,3.6,9.5v28.9h-17.1c-2.2-3.1-2.9-7.1-1.8-10.8
		c0.3-1.2,0.9-2.3,1.6-3.3l0.7-1.1c0.4-0.6,0.4-1.5-0.2-2L91.5,98c-1.6-1.6-1.6-4.2,0-5.8c1.6-1.6,4.2-1.6,5.8,0l0,0l13.9,13.7
		l2.3-2.3l-6-6V85.6l4.2-3L115.3,87.3z M122.2,77.4H114c-0.3,0-0.7,0.1-0.9,0.3l-8.1,5.7l0.8-4.1c0.2-0.9-0.4-1.7-1.3-1.9
		c-0.1,0-0.2,0-0.3,0H89.6c-2.4,0-4.4-1.7-4.8-4.1l11.3-8.4l12.1,8.9c0.6,0.4,1.3,0.4,1.9,0.1l8.9-5.8l8.1,5.3
		C126.6,75.7,124.6,77.4,122.2,77.4z"/>
	<path class="st1" d="M109.1,64.5c3.6,0,6.5-2.9,6.5-6.4c0-3.6-2.9-6.4-6.5-6.4s-6.5,2.9-6.5,6.4C102.6,61.6,105.5,64.5,109.1,64.5z
		 M109.1,54.9c1.8,0,3.3,1.4,3.3,3.2c0,1.8-1.5,3.2-3.3,3.2c-1.8,0-3.3-1.4-3.3-3.2C105.9,56.3,107.3,54.9,109.1,54.9z"/>
	<path class="st1" d="M40.6,109.6h26.1c4.5,0,8.1-3.6,8.2-8.1v-9.7c0-4.4-3.7-8-8.2-8.1h-1.2l1.1-4.4c0.2-0.9-0.3-1.7-1.2-2
		c-0.4-0.1-0.8,0-1.2,0.2l-11,6.2H40.6c-4.5,0-8.1,3.6-8.2,8.1v9.7C32.5,106,36.1,109.6,40.6,109.6z M35.7,91.9
		c0-2.7,2.2-4.8,4.9-4.8h13c0.3,0,0.6-0.1,0.8-0.2l8.1-4.6l-0.7,2.8c-0.2,0.9,0.3,1.7,1.2,2c0.1,0,0.3,0,0.4,0h3.3
		c2.7,0,4.9,2.2,4.9,4.8v9.7c0,2.7-2.2,4.8-4.9,4.8H40.6c-2.7,0-4.9-2.2-4.9-4.8V91.9z"/>
	<rect x="39" y="91.9" class="st1" width="17.9" height="3.2"/>
	<rect x="60.2" y="91.9" class="st1" width="8.2" height="3.2"/>
	<rect x="39" y="98.3" class="st1" width="29.4" height="3.2"/>
</g>
</svg>
