<svg width="252" height="16" viewBox="0 0 252 16" fill="none" xmlns="http://www.w3.org/2000/svg">
<path opacity="0.4" fill-rule="evenodd" clip-rule="evenodd" d="M0 8C0 7.44772 0.447715 7 1 7H117C117.552 7 118 7.44772 118 8C118 8.55228 117.552 9 117 9H1C0.447715 9 0 8.55228 0 8Z" fill="#D6B1FF"/>
<path fill-rule="evenodd" clip-rule="evenodd" d="M123.529 3.52864C123.268 3.78899 123.268 4.2111 123.529 4.47145L127.057 8.00004L123.529 11.5286C123.268 11.789 123.268 12.2111 123.529 12.4714C123.789 12.7318 124.211 12.7318 124.472 12.4714L128.472 8.47144C128.732 8.21109 128.732 7.78898 128.472 7.52864L124.472 3.52864C124.211 3.26829 123.789 3.26829 123.529 3.52864Z" fill="#D6B1FF"/>
<path opacity="0.4" fill-rule="evenodd" clip-rule="evenodd" d="M134 8C134 7.44772 134.448 7 135 7H251C251.552 7 252 7.44772 252 8C252 8.55228 251.552 9 251 9H135C134.448 9 134 8.55228 134 8Z" fill="#D6B1FF"/>
</svg>
