<svg xmlns="http://www.w3.org/2000/svg" viewBox="0 0 162 162"><defs><style>.cls-1,.cls-2{fill:none;}.cls-1,.cls-2,.cls-3{stroke:#000;stroke-miterlimit:10;}.cls-1{stroke-dasharray:3.01 3.01;}.cls-2,.cls-3{stroke-width:2px;}.cls-3{fill:#fff;}.cls-4{fill:#a67c52;}</style></defs><title>Asset 4</title><g id="Layer_2" data-name="Layer 2"><g id="Layer_1-2" data-name="Layer 1"><circle class="cls-1" cx="81" cy="81" r="80.5"/><line class="cls-2" x1="64" y1="104" x2="83" y2="104"/><line class="cls-2" x1="76.5" y1="58.5" x2="96.5" y2="58.5"/><line class="cls-2" x1="77" y1="63" x2="97" y2="63"/><line class="cls-2" x1="77" y1="68" x2="97" y2="68"/><rect class="cls-2" x="64" y="93" width="18" height="5"/><path class="cls-2" d="M104,61.64V118.5a7.5,7.5,0,0,1-7.5,7.5h-33a7.5,7.5,0,0,1-7.5-7.5v-8.26"/><path class="cls-2" d="M56,106.28V48.5A7.5,7.5,0,0,1,63.5,41h33a7.5,7.5,0,0,1,7.5,7.5v10"/><line class="cls-2" x1="55.5" y1="118.5" x2="103.5" y2="118.5"/><line class="cls-2" x1="76.5" y1="122.5" x2="84.5" y2="122.5"/><line class="cls-2" x1="56" y1="50.3" x2="65.5" y2="50.5"/><line class="cls-2" x1="68.5" y1="50.5" x2="104" y2="50.3"/><path class="cls-3" d="M116.89,74.5H94.11a5.61,5.61,0,0,0-5.61,5.61V98.89a5.61,5.61,0,0,0,5.61,5.61H104.5s0,8-5,8c0,0,8,1,11-8h6.39a5.61,5.61,0,0,0,5.61-5.61V80.11A5.61,5.61,0,0,0,116.89,74.5Z"/><path class="cls-3" d="M44.11,54.5H66.89a5.61,5.61,0,0,1,5.61,5.61V78.89a5.61,5.61,0,0,1-5.61,5.61H56.5s0,8,5,8c0,0-8,1-11-8H44.11a5.61,5.61,0,0,1-5.61-5.61V60.11A5.61,5.61,0,0,1,44.11,54.5Z"/><path class="cls-4" d="M107.33,94.07V90.92a5.71,5.71,0,0,0,2.5-4.92c0-3-2-5.5-4.5-5.5s-4.5,2.46-4.5,5.5a5.71,5.71,0,0,0,2.5,4.92V93.5l-6,4v2h16v-2Z"/><path class="cls-4" d="M56,79s10-7,9-15c0,0-1-5-9-2,0,0-6-3-9,0s-2,7,1,10A84.32,84.32,0,0,0,56,79Z"/></g></g></svg>