<svg xmlns="http://www.w3.org/2000/svg" viewBox="0 0 162 162"><defs><style>.cls-1,.cls-3{fill:none;stroke:#000;stroke-miterlimit:10;}.cls-1{stroke-dasharray:3.01 3.01;}.cls-2{fill:#a67c52;}.cls-3{stroke-width:2px;}</style></defs><title>Asset 2</title><g id="Layer_2" data-name="Layer 2"><g id="Layer_1-2" data-name="Layer 1"><circle class="cls-1" cx="81" cy="81" r="80.5"/><path class="cls-2" d="M98,91.89v1.52A1.59,1.59,0,0,1,96.41,95H60.59A1.59,1.59,0,0,1,59,93.41V91.82a1.59,1.59,0,0,1,.81-1.38l13-7.3a1.58,1.58,0,0,0,.8-1.38V78.31A1.54,1.54,0,0,0,72.9,77a11.35,11.35,0,0,1-5.37-9.7A11.13,11.13,0,0,1,78.5,56a11,11,0,0,1,10.18,7.07,14,14,0,0,0-5.3,18v1.79a1.57,1.57,0,0,0,.89,1.43l2.44,1.17,6.94,3.34,3.45,1.66A1.59,1.59,0,0,1,98,91.89Z"/><circle class="cls-3" cx="94.75" cy="74.38" r="10.5"/><polygon points="101.75 73.38 95.75 73.38 95.75 67.88 93.75 67.88 93.75 73.38 87.75 73.38 87.75 75.38 93.75 75.38 93.75 80.88 95.75 80.88 95.75 75.38 101.75 75.38 101.75 73.38"/><rect class="cls-3" x="32.5" y="49" width="95" height="55"/><rect class="cls-3" x="32.5" y="103.5" width="95" height="8"/><rect class="cls-3" x="70.5" y="111.5" width="20" height="9"/><line class="cls-3" x1="58.5" y1="120.5" x2="103.5" y2="120.5"/></g></g></svg>