<svg width="44" height="44" viewBox="0 0 44 44" fill="none" xmlns="http://www.w3.org/2000/svg">
<path d="M40.7047 7.58618H3.29527C1.47529 7.58618 0 9.06147 0 10.8815V33.1186C0 34.9385 1.47529 36.4139 3.29527 36.4139H40.7047C42.5246 36.4139 44 34.9386 44 33.1186V10.8815C44 9.06147 42.5247 7.58618 40.7047 7.58618Z" fill="#41479B"/>
<path d="M0.758656 22H2.07642L9.10353 17.3959V22H12.8966V17.3959L19.9237 22H21.2414C21.6604 22 22.0001 21.6603 22.0001 21.2413V20.6396L15.9711 16.6896H22V12.8965H15.9711L22 8.94657V8.34484C22 7.92581 21.6603 7.58618 21.2413 7.58618H19.9236L12.8965 12.1902V7.58618H9.10336V12.1902L2.30691 7.73726C1.51336 7.98648 0.849922 8.52814 0.441117 9.23549L6.02903 12.8965H0V16.6896H6.02895L0 20.6396V21.2413C0 21.6603 0.339539 22 0.758656 22Z" fill="#F5F5F5"/>
<path d="M22 13.6552H12.1379V7.58618H9.8621V13.6552H0V15.931H9.8621V22H12.1379V15.931H22V13.6552Z" fill="#FF4B55"/>
<path d="M0.707031 8.84297L6.95142 12.8964H8.34481L1.25531 8.29443C1.05173 8.45514 0.867734 8.6393 0.707031 8.84297Z" fill="#FF4B55"/>
<path d="M14.29 12.8965L21.8846 7.96663C21.7526 7.74328 21.5197 7.58618 21.2414 7.58618H21.0773L12.8966 12.8965H14.29Z" fill="#FF4B55"/>
<path d="M7.68913 16.6895L0.109009 21.6099C0.23972 21.8387 0.47622 21.9998 0.75861 21.9998H0.901696L9.0826 16.6895H7.68913Z" fill="#FF4B55"/>
<path d="M21.988 21.3007L14.8839 16.6895H13.4905L21.5578 21.9261C21.7994 21.8139 21.9652 21.5789 21.988 21.3007Z" fill="#FF4B55"/>
<path d="M11.2295 26.1364L11.8021 28.0267L13.6372 27.2958C13.7937 27.2334 13.936 27.412 13.8405 27.5507L12.7195 29.177L14.435 30.1559C14.5814 30.2394 14.5306 30.462 14.3625 30.4738L12.392 30.6114L12.6963 32.5629C12.7223 32.7295 12.5165 32.8286 12.4026 32.7044L11.0664 31.2496L9.73027 32.7044C9.61631 32.8285 9.41058 32.7294 9.43653 32.5629L9.74084 30.6114L7.77038 30.4738C7.60228 30.462 7.55141 30.2394 7.69784 30.1559L9.41333 29.177L8.29236 27.5507C8.1968 27.412 8.33911 27.2334 8.49569 27.2958L10.3307 28.0267L10.9033 26.1364C10.9524 25.9751 11.1807 25.9751 11.2295 26.1364Z" fill="#F5F5F5"/>
<path d="M33.7974 12.6954L34.0771 13.6188L34.9735 13.2618C35.0499 13.2314 35.1195 13.3185 35.0727 13.3863L34.5252 14.1808L35.3632 14.6591C35.4347 14.6998 35.4099 14.8086 35.3277 14.8143L34.3652 14.8815L34.5138 15.8348C34.5265 15.9162 34.426 15.9645 34.3703 15.9039L33.7176 15.1933L33.0649 15.9039C33.0092 15.9645 32.9087 15.9161 32.9214 15.8348L33.07 14.8815L32.1075 14.8143C32.0253 14.8085 32.0005 14.6998 32.072 14.6591L32.9099 14.1808L32.3624 13.3863C32.3157 13.3185 32.3853 13.2314 32.4617 13.2618L33.3581 13.6188L33.6378 12.6954C33.662 12.6165 33.7736 12.6165 33.7974 12.6954Z" fill="#F5F5F5"/>
<path d="M27.5603 19.783L27.8401 20.7064L28.7365 20.3494C28.8129 20.319 28.8825 20.4061 28.8357 20.4739L28.2882 21.2684L29.1262 21.7467C29.1977 21.7874 29.1729 21.8962 29.0907 21.9019L28.1282 21.9691L28.2769 22.9224C28.2896 23.0037 28.1891 23.0521 28.1334 22.9915L27.4807 22.2808L26.828 22.9915C26.7723 23.052 26.6718 23.0037 26.6845 22.9224L26.8331 21.9691L25.8706 21.9019C25.7885 21.8961 25.7637 21.7874 25.8352 21.7467L26.6731 21.2684L26.1256 20.4739C26.0789 20.4061 26.1485 20.319 26.2249 20.3494L27.1213 20.7064L27.401 19.783C27.4249 19.7042 27.5365 19.7042 27.5603 19.783Z" fill="#F5F5F5"/>
<path d="M39.6982 16.7485L39.9779 17.6719L40.8743 17.3149C40.9507 17.2845 41.0203 17.3716 40.9736 17.4394L40.4261 18.2339L41.2641 18.7122C41.3356 18.7529 41.3107 18.8617 41.2286 18.8674L40.2661 18.9346L40.4147 19.8879C40.4275 19.9693 40.3269 20.0176 40.2712 19.957L39.6185 19.2464L38.9658 19.957C38.9102 20.0176 38.8097 19.9692 38.8224 19.8879L38.9711 18.9346L38.0086 18.8674C37.9264 18.8616 37.9016 18.7529 37.9731 18.7122L38.8111 18.2339L38.2636 17.4394C38.2168 17.3716 38.2864 17.2845 38.3628 17.3149L39.2592 17.6719L39.539 16.7485C39.5628 16.6698 39.6743 16.6698 39.6982 16.7485Z" fill="#F5F5F5"/>
<path d="M33.7974 28.8867L34.0771 29.8101L34.9735 29.453C35.0499 29.4226 35.1195 29.5097 35.0727 29.5775L34.5252 30.372L35.3632 30.8503C35.4347 30.891 35.4099 30.9998 35.3277 31.0055L34.3652 31.0727L34.5138 32.026C34.5265 32.1074 34.426 32.1557 34.3703 32.0951L33.7176 31.3844L33.0649 32.0951C33.0092 32.1557 32.9087 32.1073 32.9214 32.026L33.07 31.0727L32.1075 31.0055C32.0253 30.9998 32.0005 30.891 32.072 30.8503L32.9099 30.372L32.3624 29.5775C32.3157 29.5097 32.3853 29.4226 32.4617 29.453L33.3581 29.8101L33.6378 28.8867C33.662 28.808 33.7736 28.808 33.7974 28.8867Z" fill="#F5F5F5"/>
<path d="M35.9615 21.4423L35.737 22.1157L35.0272 22.1212C34.9353 22.122 34.8972 22.2392 34.9712 22.2938L35.5421 22.7155L35.328 23.3922C35.3003 23.4799 35.4001 23.5523 35.4748 23.4989L36.0523 23.0861L36.6298 23.4989C36.7045 23.5522 36.8042 23.4798 36.7765 23.3922L36.5624 22.7155L37.1334 22.2938C37.2074 22.2391 37.1693 22.122 37.0774 22.1212L36.3677 22.1157L36.1431 21.4423C36.1139 21.3552 35.9906 21.3552 35.9615 21.4423Z" fill="#F5F5F5"/>
</svg>
