<svg width="39" height="39" viewBox="0 0 39 39" fill="none" xmlns="http://www.w3.org/2000/svg">
<g clip-path="url(#clip0_954:4660)">
<path d="M37.9386 28.6221L32.496 23.1795C30.5522 21.2357 27.2478 22.0133 26.4703 24.5401C25.8872 26.2896 23.9434 27.2615 22.194 26.8727C18.3065 25.9008 13.0583 20.847 12.0864 16.765C11.5033 15.0156 12.6695 13.0718 14.4189 12.4887C16.9458 11.7112 17.7233 8.40682 15.7796 6.46305L10.337 1.02048C8.78198 -0.34016 6.44946 -0.34016 5.08882 1.02048L1.39565 4.71365C-2.29752 8.6012 1.7844 18.9032 10.9201 28.0389C20.0559 37.1747 30.3579 41.4511 34.2454 37.5634L37.9386 33.8703C39.2993 32.3152 39.2993 29.9827 37.9386 28.6221Z" fill="#FF7900"/>
</g>
<defs>
<clipPath id="clip0_954:4660">
<rect width="39" height="39" fill="white"/>
</clipPath>
</defs>
</svg>
