<svg width="39" height="39" viewBox="0 0 39 39" fill="none" xmlns="http://www.w3.org/2000/svg">
<path d="M25.8521 19.6999L38.9999 28.0117V11.037L25.8521 19.6999Z" fill="#FF7900"/>
<path d="M0 11.037V28.0117L13.1479 19.6999L0 11.037Z" fill="#FF7900"/>
<path d="M36.5626 6.09375H2.43762C1.2213 6.09375 0.256055 7.0005 0.0732422 8.16806L19.5001 20.9674L38.927 8.16806C38.7442 7.0005 37.7789 6.09375 36.5626 6.09375Z" fill="#FF7900"/>
<path d="M23.6195 21.1721L20.1704 23.4439C19.9657 23.5779 19.7341 23.6437 19.5001 23.6437C19.2661 23.6437 19.0346 23.5779 18.8298 23.4439L15.3807 21.1697L0.078125 30.849C0.265813 32.0068 1.22619 32.9062 2.43762 32.9062H36.5626C37.7741 32.9062 38.7344 32.0068 38.9221 30.849L23.6195 21.1721Z" fill="#FF7900"/>
</svg>
