<svg width="56" height="56" viewBox="0 0 56 56" fill="none" xmlns="http://www.w3.org/2000/svg">
<path fill-rule="evenodd" clip-rule="evenodd" d="M27.8651 56C43.2547 56 55.7305 43.5243 55.7305 28.1346C55.7305 12.745 43.2547 0.269286 27.8651 0.269285C12.4755 0.26928 -0.000247989 12.745 -0.000253149 28.1346C-0.000254494 43.5242 12.4755 56 27.8651 56ZM24.5403 40.0767C24.1793 40.0767 23.8038 39.9349 23.5294 39.6654C22.9807 39.1265 22.9807 38.2331 23.5294 37.6801L33.2484 28.1361L23.5294 18.5922C22.9662 18.0392 22.9662 17.1599 23.5294 16.6069C24.0926 16.0538 24.988 16.0538 25.5512 16.6069L36.2811 27.1435C36.5555 27.4129 36.6999 27.7674 36.6999 28.1361C36.6999 28.5049 36.5555 28.8594 36.2811 29.1288L25.5512 39.6654C25.2768 39.9349 24.9014 40.0767 24.5403 40.0767Z" fill="white" fill-opacity="0.7"/>
</svg>
