<svg width="250" height="54" viewBox="0 0 250 54" fill="none" xmlns="http://www.w3.org/2000/svg">
<path d="M239.5 0.5H10.5C4.97715 0.5 0.5 4.97715 0.5 10.5V43.5C0.5 49.0228 4.97715 53.5 10.5 53.5H239.5C245.023 53.5 249.5 49.0228 249.5 43.5V10.5C249.5 4.97715 245.023 0.5 239.5 0.5Z" fill="white" stroke="#EA532A"/>
<path d="M53.4043 15.814C53.4043 14.6831 53.7075 13.8115 54.314 13.1992C54.8413 12.666 55.5122 12.3994 56.3267 12.3994C57.4165 12.3994 58.2134 12.7568 58.7173 13.4717C58.9956 13.873 59.145 14.2759 59.1655 14.6802H57.812C57.7241 14.3696 57.6113 14.1353 57.4736 13.9771C57.2275 13.6958 56.8628 13.5552 56.3794 13.5552C55.8872 13.5552 55.499 13.7544 55.2148 14.1528C54.9307 14.5483 54.7886 15.1094 54.7886 15.8359C54.7886 16.5625 54.938 17.1074 55.2368 17.4707C55.5386 17.8311 55.9209 18.0112 56.3838 18.0112C56.8584 18.0112 57.2202 17.856 57.4692 17.5454C57.6069 17.3784 57.7212 17.1279 57.812 16.7939H59.1523C59.0352 17.5 58.7349 18.0742 58.2515 18.5166C57.771 18.959 57.1543 19.1802 56.4014 19.1802C55.4697 19.1802 54.7373 18.8813 54.2041 18.2837C53.6709 17.6831 53.4043 16.8599 53.4043 15.814ZM63.0547 18.0332C63.5908 18.0332 64.0156 17.8354 64.3291 17.4399C64.6455 17.0444 64.8037 16.4819 64.8037 15.7524C64.8037 15.0259 64.6455 14.4648 64.3291 14.0693C64.0156 13.6709 63.5908 13.4717 63.0547 13.4717C62.5186 13.4717 62.0908 13.6694 61.7715 14.0649C61.4521 14.4604 61.2925 15.0229 61.2925 15.7524C61.2925 16.4819 61.4521 17.0444 61.7715 17.4399C62.0908 17.8354 62.5186 18.0332 63.0547 18.0332ZM66.1572 15.7524C66.1572 16.9155 65.8306 17.8062 65.1772 18.4243C64.688 18.9282 63.9805 19.1802 63.0547 19.1802C62.1289 19.1802 61.4214 18.9282 60.9321 18.4243C60.2759 17.8062 59.9478 16.9155 59.9478 15.7524C59.9478 14.5659 60.2759 13.6753 60.9321 13.0806C61.4214 12.5767 62.1289 12.3247 63.0547 12.3247C63.9805 12.3247 64.688 12.5767 65.1772 13.0806C65.8306 13.6753 66.1572 14.5659 66.1572 15.7524ZM71.4878 12.5225H73.4346V19H72.1733V14.6187C72.1733 14.4927 72.1748 14.3169 72.1777 14.0913C72.1807 13.8628 72.1821 13.687 72.1821 13.564L70.9561 19H69.6421L68.4248 13.564C68.4248 13.687 68.4263 13.8628 68.4292 14.0913C68.4321 14.3169 68.4336 14.4927 68.4336 14.6187V19H67.1724V12.5225H69.1411L70.3188 17.6157L71.4878 12.5225ZM79.4814 13.6694H76.0537V15.0449H79.2002V16.1699H76.0537V17.8354H79.6396V19H74.731V12.5225H79.4814V13.6694ZM83.9902 16.5435V16.6929C84.002 17.1938 84.0562 17.5469 84.1528 17.752C84.2524 17.9541 84.4634 18.0552 84.7856 18.0552C85.105 18.0552 85.3159 17.9438 85.4185 17.7212C85.48 17.5894 85.5107 17.3667 85.5107 17.0532V12.5225H86.8643V17.0312C86.8643 17.582 86.769 18.0186 86.5786 18.3408C86.2563 18.8857 85.6748 19.1582 84.834 19.1582C83.9932 19.1582 83.4292 18.9385 83.1421 18.499C82.855 18.0566 82.7114 17.4546 82.7114 16.6929V16.5435H83.9902ZM91.0742 18.0332C91.6104 18.0332 92.0352 17.8354 92.3486 17.4399C92.665 17.0444 92.8232 16.4819 92.8232 15.7524C92.8232 15.0259 92.665 14.4648 92.3486 14.0693C92.0352 13.6709 91.6104 13.4717 91.0742 13.4717C90.5381 13.4717 90.1104 13.6694 89.791 14.0649C89.4717 14.4604 89.312 15.0229 89.312 15.7524C89.312 16.4819 89.4717 17.0444 89.791 17.4399C90.1104 17.8354 90.5381 18.0332 91.0742 18.0332ZM94.1768 15.7524C94.1768 16.9155 93.8501 17.8062 93.1968 18.4243C92.7075 18.9282 92 19.1802 91.0742 19.1802C90.1484 19.1802 89.4409 18.9282 88.9517 18.4243C88.2954 17.8062 87.9673 16.9155 87.9673 15.7524C87.9673 14.5659 88.2954 13.6753 88.9517 13.0806C89.4409 12.5767 90.1484 12.3247 91.0742 12.3247C92 12.3247 92.7075 12.5767 93.1968 13.0806C93.8501 13.6753 94.1768 14.5659 94.1768 15.7524ZM96.4531 19H95.1084V12.5225H96.4531V19ZM97.6968 12.5225H99.1162L101.696 17.0444V12.5225H102.957V19H101.604L98.958 14.3989V19H97.6968V12.5225ZM106.728 12.5225H108.103V16.5039C108.103 16.9492 108.156 17.2744 108.261 17.4795C108.425 17.8428 108.783 18.0244 109.333 18.0244C109.881 18.0244 110.237 17.8428 110.401 17.4795C110.507 17.2744 110.56 16.9492 110.56 16.5039V12.5225H111.935V16.5039C111.935 17.1924 111.828 17.7285 111.614 18.1123C111.216 18.8154 110.456 19.167 109.333 19.167C108.211 19.167 107.45 18.8154 107.048 18.1123C106.834 17.7285 106.728 17.1924 106.728 16.5039V12.5225ZM114.211 17.0005C114.252 17.2964 114.333 17.5176 114.453 17.6641C114.673 17.9307 115.049 18.064 115.583 18.064C115.902 18.064 116.161 18.0288 116.36 17.9585C116.738 17.8237 116.927 17.5732 116.927 17.207C116.927 16.9932 116.833 16.8276 116.646 16.7104C116.458 16.5962 116.164 16.4951 115.763 16.4072L115.077 16.2534C114.403 16.1011 113.938 15.9355 113.68 15.7568C113.243 15.458 113.025 14.9907 113.025 14.355C113.025 13.7749 113.236 13.293 113.658 12.9092C114.08 12.5254 114.699 12.3335 115.517 12.3335C116.199 12.3335 116.781 12.5151 117.261 12.8784C117.745 13.2388 117.998 13.7632 118.021 14.4517H116.721C116.697 14.062 116.527 13.7852 116.211 13.6211C116 13.5127 115.738 13.4585 115.424 13.4585C115.076 13.4585 114.797 13.5288 114.589 13.6694C114.381 13.8101 114.277 14.0063 114.277 14.2583C114.277 14.4897 114.38 14.6626 114.585 14.7769C114.717 14.853 114.998 14.9424 115.429 15.0449L116.545 15.313C117.034 15.4302 117.403 15.5869 117.652 15.7832C118.039 16.0879 118.232 16.5288 118.232 17.106C118.232 17.6978 118.005 18.1899 117.551 18.5825C117.1 18.9722 116.461 19.167 115.635 19.167C114.792 19.167 114.128 18.9751 113.645 18.5913C113.161 18.2046 112.919 17.6743 112.919 17.0005H114.211ZM124.604 18.0332C125.141 18.0332 125.565 17.8354 125.879 17.4399C126.195 17.0444 126.354 16.4819 126.354 15.7524C126.354 15.0259 126.195 14.4648 125.879 14.0693C125.565 13.6709 125.141 13.4717 124.604 13.4717C124.068 13.4717 123.641 13.6694 123.321 14.0649C123.002 14.4604 122.842 15.0229 122.842 15.7524C122.842 16.4819 123.002 17.0444 123.321 17.4399C123.641 17.8354 124.068 18.0332 124.604 18.0332ZM127.707 15.7524C127.707 16.9155 127.38 17.8062 126.727 18.4243C126.238 18.9282 125.53 19.1802 124.604 19.1802C123.679 19.1802 122.971 18.9282 122.482 18.4243C121.826 17.8062 121.498 16.9155 121.498 15.7524C121.498 14.5659 121.826 13.6753 122.482 13.0806C122.971 12.5767 123.679 12.3247 124.604 12.3247C125.53 12.3247 126.238 12.5767 126.727 13.0806C127.38 13.6753 127.707 14.5659 127.707 15.7524ZM128.722 12.5225H130.142L132.721 17.0444V12.5225H133.982V19H132.629L129.983 14.3989V19H128.722V12.5225Z" fill="#EA532A"/>
<path d="M62.1104 27.6948C62.1104 26.9087 61.9019 26.3481 61.4849 26.0132C61.0747 25.6782 60.4971 25.5107 59.752 25.5107H56.8091V29.9609H59.752C60.4971 29.9609 61.0747 29.7798 61.4849 29.4175C61.9019 29.0552 62.1104 28.481 62.1104 27.6948ZM65.2378 27.6743C65.2378 29.4585 64.7866 30.7197 63.8843 31.458C62.9819 32.1963 61.6934 32.5654 60.0186 32.5654H56.8091V38H53.6714V22.8857H60.2544C61.772 22.8857 62.9819 23.2754 63.8843 24.0547C64.7866 24.834 65.2378 26.0405 65.2378 27.6743ZM73.4409 26.5566C73.4956 26.5566 73.54 26.5601 73.5742 26.5669C73.6152 26.5669 73.7007 26.5703 73.8306 26.5771V29.5713C73.646 29.5508 73.4819 29.5371 73.3384 29.5303C73.1948 29.5234 73.0786 29.52 72.9897 29.52C71.814 29.52 71.0244 29.9028 70.6211 30.6685C70.3955 31.0991 70.2827 31.7622 70.2827 32.6577V38H67.3398V26.8232H70.1289V28.7715C70.5801 28.0264 70.9731 27.5171 71.3081 27.2437C71.855 26.7856 72.5659 26.5566 73.4409 26.5566ZM80.5674 35.939C81.4219 35.939 82.0781 35.6348 82.5361 35.0264C82.9941 34.418 83.2231 33.5532 83.2231 32.4321C83.2231 31.311 82.9941 30.4497 82.5361 29.8481C82.0781 29.2397 81.4219 28.9355 80.5674 28.9355C79.7129 28.9355 79.0532 29.2397 78.5884 29.8481C78.1304 30.4497 77.9014 31.311 77.9014 32.4321C77.9014 33.5532 78.1304 34.418 78.5884 35.0264C79.0532 35.6348 79.7129 35.939 80.5674 35.939ZM86.2891 32.4321C86.2891 34.0728 85.8174 35.4775 84.874 36.6465C83.9307 37.8086 82.4985 38.3896 80.5776 38.3896C78.6567 38.3896 77.2246 37.8086 76.2812 36.6465C75.3379 35.4775 74.8662 34.0728 74.8662 32.4321C74.8662 30.8188 75.3379 29.4209 76.2812 28.2383C77.2246 27.0557 78.6567 26.4644 80.5776 26.4644C82.4985 26.4644 83.9307 27.0557 84.874 28.2383C85.8174 29.4209 86.2891 30.8188 86.2891 32.4321ZM92.5132 26.5566C93.1899 26.5566 93.7915 26.707 94.3179 27.0078C94.8442 27.3018 95.2715 27.7119 95.5996 28.2383V22.9062H98.563V38H95.7227V36.4517C95.3057 37.1147 94.8306 37.5967 94.2974 37.8975C93.7642 38.1982 93.1011 38.3486 92.3081 38.3486C91.0024 38.3486 89.9019 37.8223 89.0063 36.7695C88.1177 35.71 87.6733 34.353 87.6733 32.6987C87.6733 30.7915 88.1108 29.291 88.9858 28.1973C89.8677 27.1035 91.0435 26.5566 92.5132 26.5566ZM93.1489 35.8877C93.9761 35.8877 94.605 35.5801 95.0356 34.9648C95.4663 34.3496 95.6816 33.5532 95.6816 32.5757C95.6816 31.2085 95.3364 30.231 94.646 29.6431C94.2222 29.2876 93.73 29.1099 93.1694 29.1099C92.3149 29.1099 91.686 29.4346 91.2827 30.084C90.8862 30.7266 90.688 31.5264 90.688 32.4834C90.688 33.5156 90.8896 34.3428 91.293 34.9648C91.7031 35.5801 92.3218 35.8877 93.1489 35.8877ZM104.141 26.8232V33.5601C104.141 34.1958 104.216 34.6743 104.367 34.9956C104.633 35.563 105.156 35.8467 105.936 35.8467C106.934 35.8467 107.617 35.4434 107.986 34.6367C108.178 34.1992 108.273 33.6216 108.273 32.9038V26.8232H111.237V38H108.396V36.4209C108.369 36.4551 108.301 36.5576 108.191 36.7285C108.082 36.8994 107.952 37.0498 107.802 37.1797C107.344 37.5898 106.899 37.8701 106.469 38.0205C106.045 38.1709 105.546 38.2461 104.972 38.2461C103.317 38.2461 102.203 37.6514 101.629 36.4619C101.308 35.8057 101.147 34.8384 101.147 33.5601V26.8232H104.141ZM120.742 30.8325C120.688 30.4155 120.547 30.0396 120.322 29.7046C119.994 29.2534 119.484 29.0278 118.794 29.0278C117.81 29.0278 117.136 29.5166 116.774 30.4941C116.583 31.0137 116.487 31.7041 116.487 32.5654C116.487 33.3857 116.583 34.0454 116.774 34.5444C117.123 35.4741 117.779 35.939 118.743 35.939C119.426 35.939 119.912 35.7544 120.199 35.3853C120.486 35.0161 120.66 34.5376 120.722 33.9497H123.706C123.637 34.8384 123.316 35.6792 122.742 36.4722C121.826 37.7505 120.469 38.3896 118.671 38.3896C116.873 38.3896 115.55 37.8564 114.703 36.79C113.855 35.7236 113.431 34.3394 113.431 32.6372C113.431 30.7163 113.899 29.2227 114.836 28.1562C115.772 27.0898 117.064 26.5566 118.712 26.5566C120.113 26.5566 121.258 26.8711 122.147 27.5C123.042 28.1289 123.572 29.2397 123.736 30.8325H120.742ZM124.608 29.0073V26.9258H126.167V23.8086H129.058V26.9258H130.873V29.0073H129.058V34.9136C129.058 35.3716 129.116 35.6587 129.232 35.7749C129.349 35.8843 129.704 35.939 130.299 35.939C130.388 35.939 130.48 35.939 130.576 35.939C130.678 35.9321 130.777 35.9253 130.873 35.9185V38.1025L129.489 38.1538C128.108 38.2017 127.165 37.9624 126.659 37.436C126.331 37.1011 126.167 36.585 126.167 35.8877V29.0073H124.608ZM138.81 38V22.8857H141.937V28.6484H147.843V22.8857H150.981V38H147.843V31.2529H141.937V38H138.81ZM156.682 26.8232V33.5601C156.682 34.1958 156.757 34.6743 156.908 34.9956C157.174 35.563 157.697 35.8467 158.477 35.8467C159.475 35.8467 160.158 35.4434 160.527 34.6367C160.719 34.1992 160.814 33.6216 160.814 32.9038V26.8232H163.778V38H160.938V36.4209C160.91 36.4551 160.842 36.5576 160.732 36.7285C160.623 36.8994 160.493 37.0498 160.343 37.1797C159.885 37.5898 159.44 37.8701 159.01 38.0205C158.586 38.1709 158.087 38.2461 157.513 38.2461C155.858 38.2461 154.744 37.6514 154.17 36.4619C153.849 35.8057 153.688 34.8384 153.688 33.5601V26.8232H156.682ZM172.801 26.5566C173.957 26.5566 174.9 26.8608 175.631 27.4692C176.37 28.0708 176.739 29.0723 176.739 30.4736V38H173.745V31.2017C173.745 30.6138 173.666 30.1626 173.509 29.8481C173.222 29.2739 172.675 28.9868 171.868 28.9868C170.877 28.9868 170.197 29.4072 169.828 30.248C169.636 30.6924 169.541 31.2598 169.541 31.9502V38H166.628V26.8438H169.448V28.4741C169.824 27.8999 170.18 27.4863 170.515 27.2334C171.116 26.7822 171.878 26.5566 172.801 26.5566ZM178.297 29.0073V26.9258H179.856V23.8086H182.748V26.9258H184.562V29.0073H182.748V34.9136C182.748 35.3716 182.806 35.6587 182.922 35.7749C183.038 35.8843 183.394 35.939 183.988 35.939C184.077 35.939 184.169 35.939 184.265 35.939C184.368 35.9321 184.467 35.9253 184.562 35.9185V38.1025L183.178 38.1538C181.797 38.2017 180.854 37.9624 180.348 37.436C180.02 37.1011 179.856 36.585 179.856 35.8877V29.0073H178.297Z" fill="#EA532A"/>
<path fill-rule="evenodd" clip-rule="evenodd" d="M227.003 23H216L221.501 13L227.003 23Z" fill="#EA532A"/>
<path d="M223.555 31.332C223.285 31.5986 222.908 32.0747 222.426 32.7603C221.943 33.4416 221.539 34.1462 221.213 34.874C220.955 35.4453 220.722 36.1436 220.515 36.9688C220.308 37.7939 220.204 38.471 220.204 39H218.325C218.38 37.3496 218.922 35.6336 219.95 33.8521C220.614 32.7476 221.171 31.9774 221.619 31.5415H217.03L217.055 29.9165H223.555V31.332Z" fill="#EA532A"/>
<path fill-rule="evenodd" clip-rule="evenodd" d="M42 27.5C42 36.0604 35.0604 43 26.5 43C17.9396 43 11 36.0604 11 27.5C11 18.9396 17.9396 12 26.5 12C35.0604 12 42 18.9396 42 27.5Z" fill="#EA532A"/>
<path fill-rule="evenodd" clip-rule="evenodd" d="M28.4329 27.9561V27.9562H24.0929V23.3062H28.4329V23.3061C29.7019 23.3061 30.7306 24.347 30.7306 25.6311C30.7306 26.9151 29.7019 27.9561 28.4329 27.9561ZM28.4329 20.2061V20.2062L21.0294 20.2061V35.7061H24.0929V31.0562H28.4329V31.0561C31.3938 31.0561 33.7941 28.6272 33.7941 25.6311C33.7941 22.6349 31.3938 20.2061 28.4329 20.2061Z" fill="white"/>
</svg>
