<svg width="96" height="96" viewBox="0 0 96 96" fill="none" xmlns="http://www.w3.org/2000/svg">
<rect width="96" height="96" rx="48" fill="white"/>
<path fill-rule="evenodd" clip-rule="evenodd" d="M59 49.3323C59 47.8748 58.4194 46.475 57.3897 45.4438C56.3569 44.4125 54.9575 43.8323 53.5 43.8323C50.3039 43.8323 45.6961 43.8323 42.5 43.8323C41.0425 43.8323 39.6431 44.4125 38.6103 45.4438C37.5806 46.475 37 47.8748 37 49.3323C37 52.063 37 55.77 37 58.5007C37 59.9582 37.5806 61.358 38.6103 62.3892C39.6431 63.4204 41.0425 64.0007 42.5 64.0007C45.6961 64.0007 50.3039 64.0007 53.5 64.0007C54.9575 64.0007 56.3569 63.4204 57.3897 62.3892C58.4194 61.358 59 59.9582 59 58.5007V49.3323Z" fill="#FF7900"/>
<path d="M47.998 55.75C49.0105 55.75 49.8313 54.9292 49.8313 53.9167C49.8313 52.9042 49.0105 52.0834 47.998 52.0834C46.9855 52.0834 46.1647 52.9042 46.1647 53.9167C46.1647 54.9292 46.9855 55.75 47.998 55.75Z" fill="#E6E6E6"/>
<path fill-rule="evenodd" clip-rule="evenodd" d="M55.3322 36.5C55.3322 33.4622 52.8682 31 49.8322 31H46.1637C43.1277 31 40.6637 33.4622 40.6637 36.5C40.6637 40.2931 40.6637 45.6666 40.6637 45.6666C40.6637 46.6786 41.486 47.4999 42.498 47.4999H53.4979C54.5099 47.4999 55.3322 46.6786 55.3322 45.6666V36.5ZM51.6637 36.5V43.8333H44.3322V36.5C44.3322 35.488 45.1517 34.6667 46.1637 34.6667H49.8322C50.8442 34.6667 51.6637 35.488 51.6637 36.5Z" fill="#FF7900"/>
</svg>
