<svg width="40" height="32" viewBox="0 0 40 32" fill="none" xmlns="http://www.w3.org/2000/svg">
<g filter="url(#filter0_d)">
<path opacity="0.1" fill-rule="evenodd" clip-rule="evenodd" d="M4 16C4 7.16344 11.1634 0 20 0C28.8366 0 36 7.16344 36 16C36 24.8366 28.8366 32 20 32C11.1634 32 4 24.8366 4 16Z" fill="white"/>
<path d="M23.5791 16.7688C23.546 16.7529 22.3066 16.1426 22.0864 16.0633C21.9965 16.031 21.9002 15.9995 21.7977 15.9995C21.6304 15.9995 21.4898 16.0829 21.3803 16.2467C21.2565 16.4308 20.8817 16.8688 20.7659 16.9997C20.7508 17.017 20.7301 17.0376 20.7178 17.0376C20.7067 17.0376 20.5149 16.9586 20.4568 16.9334C19.1273 16.3559 18.1182 14.9671 17.9798 14.733C17.9601 14.6993 17.9592 14.684 17.9591 14.684C17.9639 14.6662 18.0086 14.6214 18.0317 14.5982C18.0992 14.5314 18.1724 14.4434 18.2431 14.3582C18.2766 14.3179 18.3102 14.2775 18.3431 14.2394C18.4458 14.12 18.4915 14.0272 18.5445 13.9198L18.5722 13.864C18.7016 13.607 18.5911 13.3901 18.5554 13.32C18.5261 13.2614 18.0028 11.9984 17.9472 11.8658C17.8134 11.5456 17.6366 11.3965 17.3909 11.3965C17.3681 11.3965 17.3909 11.3965 17.2953 11.4005C17.1789 11.4054 16.545 11.4889 16.2647 11.6656C15.9675 11.8529 15.4647 12.4503 15.4647 13.5007C15.4647 14.4462 16.0646 15.3388 16.3222 15.6783C16.3286 15.6869 16.3404 15.7043 16.3574 15.7292C17.3439 17.1699 18.5737 18.2376 19.8204 18.7356C21.0206 19.2151 21.589 19.2705 21.9121 19.2705C21.9121 19.2705 21.9121 19.2705 21.9121 19.2705C22.0479 19.2705 22.1566 19.2598 22.2525 19.2504L22.3133 19.2446C22.7279 19.2078 23.6391 18.7357 23.8463 18.1597C24.0096 17.7061 24.0526 17.2104 23.944 17.0306C23.8696 16.9082 23.7414 16.8467 23.5791 16.7688Z" fill="white"/>
<path d="M19.6509 7C15.0468 7 11.301 10.7176 11.301 15.2871C11.301 16.7651 11.6965 18.2118 12.4458 19.478L11.0117 23.7084C10.985 23.7872 11.0048 23.8744 11.0632 23.9338C11.1053 23.9768 11.1624 24 11.2208 24C11.2431 24 11.2656 23.9966 11.2876 23.9896L15.6988 22.5879C16.9059 23.2329 18.2702 23.5733 19.651 23.5733C24.2546 23.5734 28 19.8561 28 15.2871C28 10.7176 24.2546 7 19.6509 7ZM19.6509 21.8471C18.3517 21.8471 17.0933 21.4719 16.0116 20.7621C15.9752 20.7382 15.933 20.726 15.8905 20.726C15.868 20.726 15.8455 20.7294 15.8236 20.7363L13.6138 21.4388L14.3272 19.3342C14.3503 19.2661 14.3387 19.191 14.2962 19.1329C13.4725 18.0074 13.0371 16.6776 13.0371 15.2871C13.0371 11.6695 16.004 8.72627 19.6508 8.72627C23.2972 8.72627 26.2638 11.6695 26.2638 15.2871C26.2639 18.9043 23.2973 21.8471 19.6509 21.8471Z" fill="white"/>
</g>
<defs>
<filter id="filter0_d" x="0" y="0" width="40" height="40" filterUnits="userSpaceOnUse" color-interpolation-filters="sRGB">
<feFlood flood-opacity="0" result="BackgroundImageFix"/>
<feColorMatrix in="SourceAlpha" type="matrix" values="0 0 0 0 0 0 0 0 0 0 0 0 0 0 0 0 0 0 127 0" result="hardAlpha"/>
<feOffset dy="4"/>
<feGaussianBlur stdDeviation="2"/>
<feComposite in2="hardAlpha" operator="out"/>
<feColorMatrix type="matrix" values="0 0 0 0 0 0 0 0 0 0 0 0 0 0 0 0 0 0 0.25 0"/>
<feBlend mode="normal" in2="BackgroundImageFix" result="effect1_dropShadow"/>
<feBlend mode="normal" in="SourceGraphic" in2="effect1_dropShadow" result="shape"/>
</filter>
</defs>
</svg>
